{"title":"The Suspect (Robert Siodmak, 1944)","uid":7425332,"size":1234509681,"categoryP":"video","categoryS":"movies","magnet":"?xt=urn:btih:39bfc455ebe56ceeec94cca7e2335bf63544eac1&amp;dn=The+Suspect+%28Robert+Siodmak%2C+1944%29&amp;tr=udp%3A%2F%2Ftracker.openbittorrent.com%3A80&amp;tr=udp%3A%2F%2Fopen.demonii.com%3A1337&amp;tr=udp%3A%2F%2Ftracker.coppersurfer.tk%3A6969&amp;tr=udp%3A%2F%2Fexodus.desync.com%3A6969","seeders":0,"leechers":1,"uploader":"rpessoa","files":2,"time":1341786865,"description":"In 1902 London, unhappily married Philip Marshall meets young Mary Gray, who is unemployed and depressed. Their deepening friendship, though physically innocent, is discovered by Philip's wife who threatens him with exposure and scandal, driving him to kill her. Thereafter, fortune seems to smile on Philip Marshall; but does fate have a surprise in store? Written by Rod Crawford\n &lt;a href=&quot;\nhttp://www.imdb.com/title/tt0037330/&quot; rel=&quot;nofollow&quot; target=&quot;_NEW&quot;&gt;\nhttp://www.imdb.com/title/tt0037330/&lt;/a&gt;\n\nGeneral \nComplete name : The Suspect.avi \nFormat : AVI \nFormat/Info : Audio Video Interleave \nFile size : 1.15 GiB \nDuration : 1h 21mn \nOverall bit rate : 2 022 Kbps \nWriting application : VirtualDubMod 1.5.10.2 (build 2540/release) \nWriting library : VirtualDubMod build 2540/release \n\nVideo \nID : 0 \nFormat : MPEG-4 Visual \nFormat profile : Advanced Simple@L5 \nFormat settings, BVOP : 1 \nFormat settings, QPel : No \nFormat settings, GMC : No warppoints \nFormat settings, Matrix : Default (MPEG) \nCodec ID : XVID \nCodec ID/Hint : XviD \nDuration : 1h 21mn \nBit rate : 1 820 Kbps \nWidth : 640 pixels \nHeight : 480 pixels \nDisplay aspect ratio : 4:3 \nFrame rate : 25.000 fps \nColor space : YUV \nChroma subsampling : 4:2:0 \nBit depth : 8 bits \nScan type : Progressive \nCompression mode : Lossy \nBits/(Pixel*Frame) : 0.237 \nStream size : 1.03 GiB (90%) \nWriting library : XviD 1.2.1 (UTC 2008-12-04) \n\nAudio \nID : 1 \nFormat : AC-3 \nFormat/Info : Audio Coding 3 \nMode extension : CM (complete main) \nFormat settings, Endianness : Big \nCodec ID : 2000 \nDuration : 1h 21mn \nBit rate mode : Constant \nBit rate : 192 Kbps \nChannel(s) : 2 channels \nChannel positions : Front: L R \nSampling rate : 48.0 KHz \nBit depth : 16 bits \nCompression mode : Lossy \nStream size : 112 MiB (9%) \nAlignment : Split accross interleaves \nInterleave, duration : 40 ms (1.00 video frame) \nInterleave, preload duration : 500 ms \n\nMy rip.","torrent":{"xt":"urn:btih:39bfc455ebe56ceeec94cca7e2335bf63544eac1","amp;dn":"The+Suspect+%28Robert+Siodmak%2C+1944%29","amp;tr":["udp%3A%2F%2Ftracker.openbittorrent.com%3A80","udp%3A%2F%2Fopen.demonii.com%3A1337","udp%3A%2F%2Ftracker.coppersurfer.tk%3A6969","udp%3A%2F%2Fexodus.desync.com%3A6969"],"infoHash":"39bfc455ebe56ceeec94cca7e2335bf63544eac1","infoHashBuffer":{"type":"Buffer","data":[57,191,196,85,235,229,108,238,236,148,204,167,226,51,91,246,53,68,234,193]},"announce":[],"urlList":[]}}